<svg width="259" height="189" xmlns="http://www.w3.org/2000/svg" xmlns:xlink="http://www.w3.org/1999/xlink" overflow="hidden"><defs><clipPath id="clip0"><rect x="1526" y="6015" width="259" height="189"/></clipPath></defs><g clip-path="url(#clip0)" transform="translate(-1526 -6015)"><path d="M2.26741e-05-10.3125 143.721-10.3122 143.721 10.3128-2.26741e-05 10.3125ZM87.0418-45.0013 164.187 0.000361191 87.0416 45.0017C82.122 47.8714 75.8075 46.2097 72.9377 41.2901 70.068 36.3705 71.7297 30.056 76.6493 27.1862L138.524-8.90741 138.524 8.90802 76.6494-27.1859C71.7298-30.0556 70.0681-36.3702 72.9379-41.2898 75.8077-46.2094 82.1222-47.8711 87.0418-45.0013Z" fill="#267CB9" transform="matrix(1 0 0 -1 1526.5 6109.5)"/></g></svg>